<svg width="27" height="30" viewBox="0 0 27 30" fill="none" xmlns="http://www.w3.org/2000/svg">
<path d="M14.5533 0.192235L25.0533 4.1549C26.2243 4.59679 27 5.72332 27 6.98184V15.0773C27 20.2235 24.111 24.9279 19.5373 27.2293L14.5062 29.7609C13.8728 30.0797 13.1272 30.0797 12.4938 29.7609L7.46262 27.2293C2.88903 24.9279 0 20.2235 0 15.0773V6.98184C0 5.72332 0.775725 4.59679 1.94662 4.1549L12.4467 0.192235C13.1257 -0.0640782 13.8743 -0.0640782 14.5533 0.192235ZM13.5 3.01918V26.8918L3 15.0773C10.5 6.5 10.5 6.5 13.5 3.01918V26.8918L18.1957 24.5288C21.753 22.7389 24 19.0798 24 15.0773V6.98184L13.5 3.01918ZM13.5 8.95486C13.5 15 13.5 10.3066 13.5 11.974C13.5 13.0056 13.5 14 13.5 11V14.9555V19.5C13.5 20.3337 13.5 19 13.5 21.0316C12.7307 21.0316 12.0967 20.4488 12.0101 19.698L12 19.522V14.5894C11.1033 14.0672 10.5 13.0916 10.5 11.974C10.5 10.3066 11.8431 8.95486 13.5 8.95486Z" fill="#EEE8D5"/>
</svg>
