<svg width="24" height="30" viewBox="0 0 24 30" fill="none" xmlns="http://www.w3.org/2000/svg">
<path fill-rule="evenodd" clip-rule="evenodd" d="M3 0C1.34314 0 0 1.34314 0 3V27C0 28.6569 1.34314 30 3 30H19.5C21.9853 30 24 27.9853 24 25.5V4.5C24 2.01472 21.9853 0 19.5 0H3ZM9 3H3V27H19.5C20.3284 27 21 26.3284 21 25.5V4.5C21 3.67158 20.3284 3 19.5 3H18V16.4639C18 17.8134 16.3681 18.4894 15.4137 17.535L13.5 15.6213L11.5863 17.535C10.6319 18.4894 9 17.8135 9 16.4639V3ZM15 3H12V12.8787L12.4287 12.45C13.0203 11.8583 13.9796 11.8583 14.5713 12.45L15 12.8787V3Z" fill="#EEE8D5"/>
</svg>
