<svg width="30" height="28" viewBox="0 0 30 28" fill="none" xmlns="http://www.w3.org/2000/svg">
<path d="M29.8484 17.8564L20.8869 0.674545C20.6744 0.254545 20.2494 0 19.787 0H10.213C9.75056 0 9.32561 0.254545 9.11313 0.674545L0.151584 17.8564C-0.0483945 18.2255 -0.0483945 18.6709 0.139085 19.04L4.32614 27.3127C4.53862 27.7327 4.96357 28 5.43852 28H24.5615C25.0364 28 25.4614 27.7327 25.6739 27.3127L29.8609 19.04C30.0484 18.6709 30.0484 18.2255 29.8484 17.8564ZM2.66382 18.4673L10.3255 3.78L13.4752 9.40545L5.47602 24.0291L2.66382 18.4673ZM14.925 11.9764L18.1997 17.8182H11.7378L14.925 11.9764ZM23.7991 25.4545H7.56329L10.3505 20.3636H26.3738L23.7991 25.4545ZM21.0869 17.8182L12.5128 2.54545H19.0371L26.9987 17.8182H21.0869Z" fill="#EEE8D5"/>
</svg>
