<svg width="30" height="26" viewBox="0 0 30 26" fill="none" xmlns="http://www.w3.org/2000/svg">
<path d="M10.9202 0C11.7142 0 12.4697 0.323131 13.0146 0.887332L13.1882 1.08421L15.2206 3.61111H24.6885C26.2198 3.61111 27.4742 4.7896 27.5851 6.2844L27.5931 6.5V8.70866C29.1996 8.98273 30.2915 10.5559 29.931 12.1744L29.8756 12.3857L26.3902 23.9412C26.0446 25.0869 25.0291 25.8939 23.8466 25.9903L23.6081 26H2.90454C1.37332 26 0.118846 24.8215 0.00796681 23.3267L0 23.1111V2.88889C0 1.36592 1.18487 0.118206 2.68777 0.00792389L2.90454 0H10.9202ZM27.0935 11.5556H6.88967L3.40423 23.1111H23.6081L27.0935 11.5556ZM10.9202 2.88889H2.90454V14.7141L4.10764 10.7254C4.47621 9.50349 5.60702 8.66667 6.88967 8.66667H24.6885V6.5H15.2206C14.3384 6.5 13.5038 6.10107 12.9526 5.41579L10.9202 2.88889Z" fill="#EEE8D5"/>
</svg>
