<svg width="28" height="30" viewBox="0 0 28 30" fill="none" xmlns="http://www.w3.org/2000/svg">
<path d="M6.35933 6.29084C5.99122 5.33512 6.00568 4.24297 6.16979 3.24291C7.28679 3.5915 8.36463 4.12528 9.29415 4.84753C9.70492 5.16669 10.2462 5.27134 10.7506 5.11593C11.9732 4.73929 13.3189 4.5291 14.737 4.5291C16.1538 4.5291 17.4982 4.73889 18.7199 5.11485C19.2242 5.27003 19.765 5.16544 20.1757 4.84651C21.1049 4.1248 22.1823 3.59134 23.2987 3.24291C23.4627 4.24201 23.4772 5.33284 23.1104 6.28794C22.8893 6.86323 23.0001 7.52569 23.4166 7.99555C24.4835 9.19908 25.0527 10.5832 25.0527 12.0206C25.0527 15.1881 22.1504 18.2937 17.4872 19.2395C16.3194 19.4763 15.8638 20.9691 16.7576 21.8252C17.3301 22.3736 17.6843 23.1468 17.6843 24.0069V28.5017C17.6843 29.3291 18.3441 30 19.158 30C19.9719 30 20.6317 29.3291 20.6317 28.5017V24.0069C20.6317 23.1531 20.4556 22.3406 20.139 21.6052C24.5857 20.0359 28 16.504 28 12.0206C28 10.0015 27.2862 8.1471 26.1031 6.59368C26.4123 5.36567 26.3849 4.12711 26.2673 3.17691C26.162 2.32657 26.0157 1.21126 25.4258 0.546698C24.5496 -0.440223 23.0974 0.140483 22.0658 0.499308C21.1545 0.814352 20.0272 1.31649 18.935 2.06503C17.6124 1.71873 16.2004 1.53253 14.737 1.53253C13.2722 1.53253 11.8586 1.71911 10.535 2.06607C9.44272 1.31715 8.31503 0.814772 7.40338 0.499577C6.37194 0.140707 4.91879 -0.440268 4.04265 0.546878C3.442 1.22361 3.31544 2.25034 3.20806 3.12155L3.20095 3.17908C3.08344 4.13023 3.05636 5.37013 3.36684 6.5991C2.18614 8.15143 1.47403 10.0039 1.47403 12.0206C1.47403 16.504 4.88836 20.0359 9.33506 21.6052C9.02205 22.3321 8.84645 23.1343 8.84242 23.9772L8.59522 24.0274C7.53884 24.1754 6.86213 24.0436 6.40152 23.8449C5.28145 23.3618 4.70467 22.1467 3.99869 21.2179C3.56006 20.6408 2.92121 19.9213 1.94007 19.5889C1.16796 19.3273 0.333394 19.7514 0.0760179 20.5365C-0.181343 21.3215 0.23594 22.17 1.00805 22.4317C1.83137 22.7107 2.39965 24.1429 2.92088 24.7788C3.47038 25.4493 4.2015 26.1511 5.25044 26.6035C6.25477 27.0367 7.43456 27.1918 8.84235 27.0165V28.5017C8.84235 29.3291 9.50214 30 10.316 30C11.1299 30 11.7897 29.3291 11.7897 28.5017V24.0069C11.7897 23.1468 12.144 22.3736 12.7165 21.8252C13.6104 20.9689 13.1543 19.4763 11.9869 19.2395C7.32362 18.2937 4.42136 15.1881 4.42136 12.0206C4.42136 10.5846 4.98944 9.20182 6.05424 7.99913C6.4706 7.52885 6.58088 6.86608 6.35933 6.29084Z" fill="#EEE8D5"/>
</svg>
