<svg width="30" height="30" viewBox="0 0 30 30" fill="none" xmlns="http://www.w3.org/2000/svg">
<path fill-rule="evenodd" clip-rule="evenodd" d="M21.6667 0C26.269 0 30 3.73097 30 8.33333V21.6667C30 26.269 26.269 30 21.6667 30H8.33333C3.73097 30 0 26.269 0 21.6667V8.33333C0 3.73097 3.73097 0 8.33333 0H21.6667ZM21.6667 3.33333H8.33333C5.57192 3.33333 3.33333 5.57192 3.33333 8.33333V21.6667C3.33333 24.4282 5.57192 26.6667 8.33333 26.6667H21.6667C24.4282 26.6667 26.6667 24.4282 26.6667 21.6667V8.33333C26.6667 5.57192 24.4282 3.33333 21.6667 3.33333ZM15 8.33333C18.6818 8.33333 21.6667 11.3181 21.6667 15C21.6667 18.6818 18.6818 21.6667 15 21.6667C11.3181 21.6667 8.33333 18.6818 8.33333 15C8.33333 11.3181 11.3181 8.33333 15 8.33333ZM15 11.6667C13.159 11.6667 11.6667 13.159 11.6667 15C11.6667 16.841 13.159 18.3333 15 18.3333C16.841 18.3333 18.3333 16.841 18.3333 15C18.3333 13.159 16.841 11.6667 15 11.6667ZM22.5 5.83333C23.4205 5.83333 24.1667 6.57953 24.1667 7.5C24.1667 8.42047 23.4205 9.16667 22.5 9.16667C21.5795 9.16667 20.8333 8.42047 20.8333 7.5C20.8333 6.57953 21.5795 5.83333 22.5 5.83333Z" fill="#EEE8D5"/>
</svg>
