<svg width="30" height="30" viewBox="0 0 30 30" fill="none" xmlns="http://www.w3.org/2000/svg">
<path d="M25 0C27.7615 0 30 2.23858 30 5V25C30 27.7615 27.7615 30 25 30H5C2.23858 30 0 27.7615 0 25V5C0 2.23858 2.23858 0 5 0H25ZM25 3.33333H5C4.07953 3.33333 3.33333 4.07953 3.33333 5V25C3.33333 25.9205 4.07953 26.6667 5 26.6667H25C25.9205 26.6667 26.6667 25.9205 26.6667 25V5C26.6667 4.07953 25.9205 3.33333 25 3.33333ZM8.33333 11.6667C9.18805 11.6667 9.89251 12.31 9.98879 13.139L10 13.3333V21.6667C10 22.5872 9.2538 23.3333 8.33333 23.3333C7.47861 23.3333 6.77416 22.69 6.67788 21.861L6.66667 21.6667V13.3333C6.66667 12.4128 7.41287 11.6667 8.33333 11.6667ZM13.3333 10C14.1522 10 14.833 10.5904 14.9735 11.3688C15.3105 11.1739 15.6583 10.9982 16.0112 10.8473C17.1232 10.3716 18.7887 10.1099 20.2915 10.5825C21.0793 10.8302 21.872 11.2984 22.4597 12.0927C22.9841 12.8017 23.2665 13.664 23.3228 14.6321L23.3333 15V21.6667C23.3333 22.587 22.5872 23.3333 21.6667 23.3333C20.8119 23.3333 20.1075 22.6898 20.0112 21.861L20 21.6667V15C20 14.4512 19.8668 14.1928 19.78 14.0752C19.6905 13.9543 19.5457 13.8422 19.2918 13.7623C18.7113 13.5798 17.8768 13.6747 17.3222 13.912C16.4871 14.2691 15.7246 14.8285 15.2065 15.3472L15 15.5663V21.6667C15 22.5872 14.2538 23.3333 13.3333 23.3333C12.4786 23.3333 11.7742 22.69 11.6779 21.861L11.6667 21.6667V11.6667C11.6667 10.7462 12.4128 10 13.3333 10ZM8.33333 6.66667C9.2538 6.66667 10 7.41287 10 8.33333C10 9.2538 9.2538 10 8.33333 10C7.41287 10 6.66667 9.2538 6.66667 8.33333C6.66667 7.41287 7.41287 6.66667 8.33333 6.66667Z" fill="#EEE8D5"/>
</svg>
