<svg width="27" height="30" viewBox="0 0 27 30" fill="none" xmlns="http://www.w3.org/2000/svg">
<path fill-rule="evenodd" clip-rule="evenodd" d="M10.5 4.8193L3 5.76305V13.49H10.5V4.8193ZM13.5 4.4418V13.49H24V3.12056L13.5 4.4418ZM10.5 16.51H3V24.237L10.5 25.1807V16.51ZM13.5 25.5582V16.51H24V26.8794L13.5 25.5582ZM0 5.76305V15V24.237C0 25.7601 1.12661 27.0448 2.6279 27.2337L24.4708 29.9822C25.8138 30.1511 27 29.097 27 27.7347V15V2.26531C27 0.902937 25.8138 -0.151159 24.4708 0.0178242L2.6279 2.76639C1.12661 2.95531 0 4.24001 0 5.76305Z" fill="#EEE8D5"/>
</svg>
