<svg width="30" height="30" viewBox="0 0 30 30" fill="none" xmlns="http://www.w3.org/2000/svg">
<path d="M12.2728 21.8182H10.9091V11.591L18.0249 22.2646C18.6641 23.2235 19.8374 23.6771 20.9556 23.3976L21.3018 23.311C21.6054 23.2351 21.8182 22.9623 21.8182 22.6495V8.18187C21.8182 8.18187 23.1819 8.18187 23.1819 6.81824H19.091C17.7273 6.81824 17.7273 8.18187 17.7273 8.18187H19.091V16.3637L12.4768 7.10376C12.3487 6.92457 12.1422 6.81824 11.922 6.81824H8.18187C6.81824 6.81824 6.81824 8.18187 6.81824 8.18187H8.18187V21.8182C8.18187 21.8182 6.81824 21.8182 6.81824 23.1819H10.9091C12.2728 23.1819 12.2728 21.8182 12.2728 21.8182Z" fill="#EEE8D5"/>
<path fill-rule="evenodd" clip-rule="evenodd" d="M0 4.09091C0 1.83157 1.83157 0 4.09091 0H25.9091C28.1685 0 30 1.83157 30 4.09091V25.9091C30 28.1685 28.1685 30 25.9091 30H4.09091C1.83157 30 0 28.1685 0 25.9091V4.09091ZM4.09091 2.72727H25.9091C26.6622 2.72727 27.2727 3.3378 27.2727 4.09091V25.9091C27.2727 26.6622 26.6622 27.2727 25.9091 27.2727H4.09091C3.3378 27.2727 2.72727 26.6622 2.72727 25.9091V4.09091C2.72727 3.3378 3.3378 2.72727 4.09091 2.72727Z" fill="#EEE8D5"/>
</svg>
