<svg width="28" height="30" viewBox="0 0 28 30" fill="none" xmlns="http://www.w3.org/2000/svg">
<path fill-rule="evenodd" clip-rule="evenodd" d="M0.396496 2.63258C-0.477027 1.59815 0.247053 0 1.58937 0H21C24.866 0 28 3.18114 28 7.10526C28 11.0294 24.866 14.2105 21 14.2105H1.58937C0.24696 14.2105 -0.476965 12.6123 0.396496 11.5779L1.57027 10.188C3.06822 8.41407 3.06822 5.79646 1.57027 4.02257L0.396496 2.63258ZM4.7638 3.15789C6.15186 5.59516 6.15186 8.61537 4.7638 11.0526H21C23.1478 11.0526 24.8889 9.28533 24.8889 7.10526C24.8889 4.92519 23.1478 3.15789 21 3.15789H4.7638ZM0 22.8947C0 18.9706 3.13401 15.7895 7 15.7895H26.4107C27.753 15.7895 28.4769 17.3877 27.6035 18.4221L26.4297 19.812C24.9318 21.5859 24.9318 24.2035 26.4297 25.9775L27.6035 27.3674C28.4769 28.4018 27.753 30 26.4107 30H7C3.13401 30 0 26.8189 0 22.8947ZM7 18.9474C4.85223 18.9474 3.11111 20.7147 3.11111 22.8947C3.11111 25.0748 4.85223 26.8421 7 26.8421H23.2363C21.8481 24.4048 21.8481 21.3846 23.2363 18.9474H7Z" fill="#EEE8D5"/>
</svg>
