<svg width="34" height="30" viewBox="0 0 34 30" fill="none" xmlns="http://www.w3.org/2000/svg">
<path fill-rule="evenodd" clip-rule="evenodd" d="M1.03427 10.4599C-0.344782 9.81361 -0.344732 7.86909 1.03427 7.22284L15.9469 0.234323C16.6135 -0.0781077 17.3864 -0.0781077 18.0531 0.234323L32.9657 7.22284C34.1703 7.78735 34.3227 9.34241 33.4229 10.1575V16.9793C33.4229 17.8782 32.6876 18.6069 31.7806 18.6069C30.8736 18.6069 30.1383 17.8782 30.1383 16.9793V11.7849L28.496 12.5546V18.6069C28.496 24.8992 23.349 30 16.9999 30C10.6508 30 5.50383 24.8992 5.50383 18.6069V12.5544L1.03427 10.4599ZM25.2114 10.4689H25.2628L28.7358 8.84136L16.9999 3.34156L5.26413 8.84136L8.73718 10.4689H8.78842V10.493L16.9999 14.3412L25.2114 10.493V10.4689ZM15.9469 17.4484L8.78842 14.0938V18.6069C8.78842 23.1013 12.4648 26.7448 16.9999 26.7448C21.535 26.7448 25.2114 23.1013 25.2114 18.6069V14.0938L18.0531 17.4484C17.3864 17.7609 16.6135 17.7609 15.9469 17.4484Z" fill="#EEE8D5"/>
</svg>
