<svg width="30" height="30" viewBox="0 0 30 30" fill="none" xmlns="http://www.w3.org/2000/svg">
<path d="M15 0C23.2842 0 30 6.71572 30 15C30 23.2842 23.2842 30 15 30C12.3546 30 9.86563 29.314 7.70538 28.1096L7.24756 27.8436L2.69963 29.1813C1.60404 29.5036 0.582331 28.5494 0.779806 27.464L0.818715 27.3003L2.15634 22.7525C0.787575 20.4891 0 17.8344 0 15C0 6.71572 6.71572 0 15 0ZM15 3C8.37258 3 3 8.37258 3 15C3 17.3654 3.6828 19.5666 4.86147 21.4227C5.15903 21.8914 5.2856 22.4671 5.18478 23.0383L5.12748 23.2826L4.465 25.535L6.71741 24.8725C7.36613 24.6817 8.04171 24.7985 8.57726 25.1385C10.4335 26.3172 12.6347 27 15 27C21.6275 27 27 21.6275 27 15C27 8.37258 21.6275 3 15 3ZM10.6524 7.77612C10.9762 7.63737 11.3683 7.66275 11.6783 7.88889C12.435 8.44083 13.0357 9.18114 13.5516 9.90517L14.0419 10.6162C14.1197 10.7313 14.1959 10.844 14.2707 10.9534C14.5445 11.3538 14.5129 11.8858 14.2027 12.2489L14.0891 12.3633L12.704 13.392C12.5667 13.494 12.5209 13.6792 12.6033 13.8292C12.9168 14.3997 13.4751 15.2486 14.1139 15.8874C14.7535 16.527 15.6426 17.1215 16.2522 17.4701C16.3839 17.5454 16.544 17.5216 16.6515 17.4235L16.7091 17.3559L17.6103 15.9833C17.9557 15.5235 18.601 15.423 19.0701 15.7476L19.8844 16.3152C20.6936 16.8927 21.4725 17.5136 22.0882 18.3021C22.3308 18.6127 22.3668 19.0188 22.2222 19.3563C21.6282 20.7424 20.1248 21.923 18.561 21.8654L18.3232 21.8516L18.0353 21.8231C17.9833 21.8169 17.9294 21.8099 17.8737 21.8019L17.5171 21.7428C16.1316 21.4812 13.9089 20.6955 11.6074 18.3941C9.30595 16.0926 8.52025 13.8698 8.2586 12.4843L8.19949 12.1277L8.16189 11.8161L8.14134 11.5529C8.13909 11.5132 8.13736 11.4757 8.13606 11.4404C8.07843 9.87441 9.26532 8.3706 10.6524 7.77612Z" fill="#EEE8D5"/>
</svg>
